<?xml version="1.0" encoding="UTF-8"?>
<svg width="800" height="740" xmlns="http://www.w3.org/2000/svg">
  <!-- Background -->
  <rect width="800" height="740" fill="#f8f9fa" />
  
  <!-- Title -->
  <text x="400" y="40" font-family="Arial" font-size="24" text-anchor="middle" font-weight="bold">Stamps.com Global Shipping &amp; Mailing Platforms</text>
  
  <!-- Cloud Infrastructure Border -->
  <rect x="80" y="80" width="640" height="620" rx="10" ry="10" fill="#f1faff" stroke="#3b82f6" stroke-width="2" />
  <text x="400" y="110" font-family="Arial" font-size="18" text-anchor="middle" fill="#3b82f6">Cloud Infrastructure (AWS)</text>
  
  <!-- Two Platform Sections -->
  <rect x="100" y="130" width="280" height="490" rx="5" ry="5" fill="#eff6ff" stroke="#2563eb" stroke-width="2" />
  <text x="240" y="155" font-family="Arial" font-size="16" text-anchor="middle" fill="#1e40af">GlobalPost System</text>
  
  <rect x="420" y="130" width="280" height="490" rx="5" ry="5" fill="#eff6ff" stroke="#2563eb" stroke-width="2" />
  <text x="560" y="155" font-family="Arial" font-size="16" text-anchor="middle" fill="#1e40af">DYMO Stamps Online®</text>
  
  <!-- GlobalPost Components -->
  <!-- Frontend -->
  <rect x="120" y="170" width="240" height="60" rx="5" ry="5" fill="#fff7ed" stroke="#ea580c" stroke-width="2" />
  <text x="240" y="195" font-family="Arial" font-size="14" text-anchor="middle" fill="#7c2d12">Enterprise Shipping Portal</text>
  <text x="240" y="215" font-family="Arial" font-size="12" text-anchor="middle" fill="#7c2d12">React + TypeScript</text>
  
  <!-- API Gateway -->
  <rect x="120" y="250" width="240" height="50" rx="5" ry="5" fill="#ecfdf5" stroke="#059669" stroke-width="2" />
  <text x="240" y="280" font-family="Arial" font-size="14" text-anchor="middle" fill="#059669">Secure API Gateway</text>
  
  <!-- Microservices -->
  <rect x="120" y="320" width="110" height="60" rx="5" ry="5" fill="#ffffff" stroke="#3b82f6" stroke-width="1" />
  <text x="175" y="345" font-family="Arial" font-size="12" text-anchor="middle">Postage</text>
  <text x="175" y="365" font-family="Arial" font-size="12" text-anchor="middle">Generation</text>
  
  <rect x="250" y="320" width="110" height="60" rx="5" ry="5" fill="#ffffff" stroke="#3b82f6" stroke-width="1" />
  <text x="305" y="345" font-family="Arial" font-size="12" text-anchor="middle">International</text>
  <text x="305" y="365" font-family="Arial" font-size="12" text-anchor="middle">Routing</text>
  
  <rect x="120" y="400" width="110" height="60" rx="5" ry="5" fill="#ffffff" stroke="#3b82f6" stroke-width="1" />
  <text x="175" y="425" font-family="Arial" font-size="12" text-anchor="middle">Shipping</text>
  <text x="175" y="445" font-family="Arial" font-size="12" text-anchor="middle">Rates</text>
  
  <rect x="250" y="400" width="110" height="60" rx="5" ry="5" fill="#ffffff" stroke="#3b82f6" stroke-width="1" />
  <text x="305" y="425" font-family="Arial" font-size="12" text-anchor="middle">Customs</text>
  <text x="305" y="445" font-family="Arial" font-size="12" text-anchor="middle">Documentation</text>
  
  <!-- Transaction Coordinator -->
  <rect x="120" y="480" width="240" height="50" rx="5" ry="5" fill="#f5f3ff" stroke="#7c3aed" stroke-width="2" />
  <text x="240" y="510" font-family="Arial" font-size="14" text-anchor="middle" fill="#5b21b6">Distributed Transaction Coordinator</text>
  
  <!-- Database -->
  <rect x="120" y="550" width="240" height="50" rx="5" ry="5" fill="#fff1f2" stroke="#be123c" stroke-width="2" />
  <text x="240" y="580" font-family="Arial" font-size="14" text-anchor="middle" fill="#9f1239">PostgreSQL Database Cluster</text>
  
  <!-- DYMO Components -->
  <!-- Frontend -->
  <rect x="440" y="170" width="240" height="60" rx="5" ry="5" fill="#fff7ed" stroke="#ea580c" stroke-width="2" />
  <text x="560" y="195" font-family="Arial" font-size="14" text-anchor="middle" fill="#7c2d12">DYMO Label Interface</text>
  <text x="560" y="215" font-family="Arial" font-size="12" text-anchor="middle" fill="#7c2d12">React + TypeScript</text>
  
  <!-- API Gateway -->
  <rect x="440" y="250" width="240" height="50" rx="5" ry="5" fill="#ecfdf5" stroke="#059669" stroke-width="2" />
  <text x="560" y="280" font-family="Arial" font-size="14" text-anchor="middle" fill="#059669">Secure API Gateway</text>
  
  <!-- Microservices -->
  <rect x="440" y="320" width="110" height="60" rx="5" ry="5" fill="#ffffff" stroke="#3b82f6" stroke-width="1" />
  <text x="495" y="345" font-family="Arial" font-size="12" text-anchor="middle">Label</text>
  <text x="495" y="365" font-family="Arial" font-size="12" text-anchor="middle">Generation</text>
  
  <rect x="570" y="320" width="110" height="60" rx="5" ry="5" fill="#ffffff" stroke="#3b82f6" stroke-width="1" />
  <text x="625" y="345" font-family="Arial" font-size="12" text-anchor="middle">Account</text>
  <text x="625" y="365" font-family="Arial" font-size="12" text-anchor="middle">Management</text>
  
  <rect x="440" y="400" width="110" height="60" rx="5" ry="5" fill="#ffffff" stroke="#3b82f6" stroke-width="1" />
  <text x="495" y="425" font-family="Arial" font-size="12" text-anchor="middle">Printer</text>
  <text x="495" y="445" font-family="Arial" font-size="12" text-anchor="middle">Integration</text>
  
  <rect x="570" y="400" width="110" height="60" rx="5" ry="5" fill="#ffffff" stroke="#3b82f6" stroke-width="1" />
  <text x="625" y="425" font-family="Arial" font-size="12" text-anchor="middle">Postage</text>
  <text x="625" y="445" font-family="Arial" font-size="12" text-anchor="middle">Purchase</text>
  
  <!-- Transaction Coordinator -->
  <rect x="440" y="480" width="240" height="50" rx="5" ry="5" fill="#f5f3ff" stroke="#7c3aed" stroke-width="2" />
  <text x="560" y="510" font-family="Arial" font-size="14" text-anchor="middle" fill="#5b21b6">Transaction Processing Service</text>
  
  <!-- Database -->
  <rect x="440" y="550" width="240" height="50" rx="5" ry="5" fill="#fff1f2" stroke="#be123c" stroke-width="2" />
  <text x="560" y="580" font-family="Arial" font-size="14" text-anchor="middle" fill="#9f1239">PostgreSQL Database Cluster</text>
  
  <!-- DevOps &amp; Infrastructure Layer at Bottom -->
  <rect x="100" y="700" width="600" height="60" rx="5" ry="5" fill="#fef3c7" stroke="#d97706" stroke-width="2" />
  <text x="400" y="725" font-family="Arial" font-size="16" text-anchor="middle" fill="#92400e">DevOps Infrastructure</text>
  
  <!-- DevOps Components -->
  <rect x="120" y="710" width="120" height="40" rx="3" ry="3" fill="#ffffff" stroke="#d97706" stroke-width="1" />
  <text x="180" y="735" font-family="Arial" font-size="12" text-anchor="middle">CI/CD Pipelines</text>
  
  <rect x="260" y="710" width="120" height="40" rx="3" ry="3" fill="#ffffff" stroke="#d97706" stroke-width="1" />
  <text x="320" y="735" font-family="Arial" font-size="12" text-anchor="middle">Terraform IaC</text>
  
  <rect x="400" y="710" width="120" height="40" rx="3" ry="3" fill="#ffffff" stroke="#d97706" stroke-width="1" />
  <text x="460" y="735" font-family="Arial" font-size="12" text-anchor="middle">Docker Containers</text>
  
  <rect x="540" y="710" width="140" height="40" rx="3" ry="3" fill="#ffffff" stroke="#d97706" stroke-width="1" />
  <text x="610" y="735" font-family="Arial" font-size="12" text-anchor="middle">Monitoring &amp; Alerting</text>
  
  <!-- External Systems -->
  <rect x="20" y="250" width="40" height="120" rx="5" ry="5" fill="#e5e7eb" stroke="#4b5563" stroke-width="1.5" />
  <text x="40" y="315" font-family="Arial" font-size="12" text-anchor="middle" fill="#4b5563" transform="rotate(-90, 40, 315)">USPS / Carriers</text>
  
  <rect x="20" y="400" width="40" height="100" rx="5" ry="5" fill="#e5e7eb" stroke="#4b5563" stroke-width="1.5" />
  <text x="40" y="450" font-family="Arial" font-size="12" text-anchor="middle" fill="#4b5563" transform="rotate(-90, 40, 450)">Enterprise Users</text>
  
  <rect x="740" y="250" width="40" height="120" rx="5" ry="5" fill="#e5e7eb" stroke="#4b5563" stroke-width="1.5" />
  <text x="760" y="315" font-family="Arial" font-size="12" text-anchor="middle" fill="#4b5563" transform="rotate(90, 760, 315)">USPS / Carriers</text>
  
  <rect x="740" y="400" width="40" height="100" rx="5" ry="5" fill="#e5e7eb" stroke="#4b5563" stroke-width="1.5" />
  <text x="760" y="450" font-family="Arial" font-size="12" text-anchor="middle" fill="#4b5563" transform="rotate(90, 760, 450)">DYMO Printers</text>
  
  <!-- Connection Lines -->
  <!-- GlobalPost Connections -->
  <line x1="240" y1="230" x2="240" y2="250" stroke="#666" stroke-width="1.5" />
  <polygon points="240,250 235,245 245,245" fill="#666" />
  
  <line x1="240" y1="300" x2="240" y2="320" stroke="#666" stroke-width="1.5" />
  <polygon points="240,320 235,315 245,315" fill="#666" />
  
  <line x1="175" y1="380" x2="175" y2="400" stroke="#666" stroke-width="1.5" />
  <polygon points="175,400 170,395 180,395" fill="#666" />
  
  <line x1="305" y1="380" x2="305" y2="400" stroke="#666" stroke-width="1.5" />
  <polygon points="305,400 300,395 310,395" fill="#666" />
  
  <line x1="175" y1="460" x2="175" y2="480" stroke="#666" stroke-width="1.5" />
  <polygon points="175,480 170,475 180,475" fill="#666" />
  
  <line x1="305" y1="460" x2="305" y2="480" stroke="#666" stroke-width="1.5" />
  <polygon points="305,480 300,475 310,475" fill="#666" />
  
  <line x1="240" y1="530" x2="240" y2="550" stroke="#666" stroke-width="1.5" />
  <polygon points="240,550 235,545 245,545" fill="#666" />
  
  <!-- DYMO Connections -->
  <line x1="560" y1="230" x2="560" y2="250" stroke="#666" stroke-width="1.5" />
  <polygon points="560,250 555,245 565,245" fill="#666" />
  
  <line x1="560" y1="300" x2="560" y2="320" stroke="#666" stroke-width="1.5" />
  <polygon points="560,320 555,315 565,315" fill="#666" />
  
  <line x1="495" y1="380" x2="495" y2="400" stroke="#666" stroke-width="1.5" />
  <polygon points="495,400 490,395 500,395" fill="#666" />
  
  <line x1="625" y1="380" x2="625" y2="400" stroke="#666" stroke-width="1.5" />
  <polygon points="625,400 620,395 630,395" fill="#666" />
  
  <line x1="495" y1="460" x2="495" y2="480" stroke="#666" stroke-width="1.5" />
  <polygon points="495,480 490,475 500,475" fill="#666" />
  
  <line x1="625" y1="460" x2="625" y2="480" stroke="#666" stroke-width="1.5" />
  <polygon points="625,480 620,475 630,475" fill="#666" />
  
  <line x1="560" y1="530" x2="560" y2="550" stroke="#666" stroke-width="1.5" />
  <polygon points="560,550 555,545 565,545" fill="#666" />
  
  <!-- External Connection Lines -->
  <line x1="60" y1="315" x2="120" y2="315" stroke="#666" stroke-width="1.5" />
  <polygon points="120,315 115,310 115,320" fill="#666" />
  
  <line x1="60" y1="450" x2="120" y2="450" stroke="#666" stroke-width="1.5" />
  <polygon points="120,450 115,445 115,455" fill="#666" />
  
  <line x1="680" y1="315" x2="740" y2="315" stroke="#666" stroke-width="1.5" />
  <polygon points="740,315 735,310 735,320" fill="#666" />
  
  <line x1="680" y1="450" x2="740" y2="450" stroke="#666" stroke-width="1.5" />
  <polygon points="740,450 735,445 735,455" fill="#666" />
  
  <!-- Connection to DevOps -->
  <line x1="240" y1="600" x2="240" y2="700" stroke="#666" stroke-width="1.5" />
  <polygon points="240,700 235,695 245,695" fill="#666" />
  
  <line x1="560" y1="600" x2="560" y2="700" stroke="#666" stroke-width="1.5" />
  <polygon points="560,700 555,695 565,695" fill="#666" />
</svg>
